<svg width="100" height="50" viewBox="0 0 1656 491" fill="none" xmlns="http://www.w3.org/2000/svg">
<path d="M768.21 235.32L739.262 273.519C737.789 275.524 736.315 275.906 734.495 275.906C732.675 275.906 731.462 275.429 730.075 273.519L701.127 235.32C700.26 234.174 700 233.41 700 232.646C700 230.068 701.907 228.54 704.767 228.54C706.76 228.54 707.8 229.208 708.84 230.641L734.582 265.211L760.583 230.641C761.623 229.208 762.75 228.54 764.657 228.54C767.43 228.54 769.337 230.068 769.337 232.55C769.337 233.41 769.077 234.174 768.21 235.32Z" fill="#3589B6"/>
<path d="M830.592 271.896V232.55C830.592 229.972 832.152 228.54 835.185 228.54C838.219 228.54 839.779 229.972 839.779 232.55V271.896C839.779 274.569 838.219 275.906 835.185 275.906C832.152 275.906 830.592 274.569 830.592 271.896ZM840.212 217.175C840.212 220.231 838.479 221.759 835.185 221.759C831.805 221.759 830.158 220.231 830.158 217.175C830.158 214.119 831.805 212.591 835.185 212.591C838.479 212.591 840.212 214.119 840.212 217.175Z" fill="#3589B6"/>
<path d="M951.343 271.322H924.388C911.994 271.322 905.84 267.12 905.84 258.621V253.177C905.84 244.774 911.994 240.572 924.388 240.572H961.223V239.139C961.223 234.651 957.67 232.454 950.563 232.454H920.23C917.37 232.454 915.896 231.213 915.896 228.73C915.896 226.247 917.37 224.91 920.23 224.91H950.563C963.737 224.91 970.237 229.685 970.237 239.139V257.857C970.237 266.834 963.997 271.322 951.343 271.322ZM950.823 263.873C957.756 263.873 961.223 261.772 961.223 257.57V247.161H925.081C918.321 247.161 914.941 249.167 914.941 252.986V257.952C914.941 261.868 918.321 263.873 925.081 263.873H950.823Z" fill="#3589B6"/>
<path d="M1091.67 271.322H1061.69C1046.69 271.322 1039.24 266.261 1039.24 256.233V240.094C1039.24 229.972 1046.69 224.91 1061.69 224.91H1091.67C1094.62 224.91 1096.18 226.247 1096.18 228.826C1096.18 231.404 1094.62 232.741 1091.67 232.741H1061.34C1052.85 232.741 1048.51 235.128 1048.51 239.999V256.329C1048.51 261.104 1052.85 263.587 1061.34 263.587H1091.67C1094.62 263.587 1096.18 264.828 1096.18 267.407C1096.18 269.985 1094.62 271.322 1091.67 271.322ZM1076.16 276.288V280.681C1076.16 288.894 1070.96 293 1060.73 293H1057.7C1055.27 293 1054.06 291.95 1054.06 289.849C1054.06 287.843 1055.27 286.697 1057.7 286.697H1060.73C1065.93 286.697 1068.53 284.692 1068.53 280.776V276.288C1068.53 274.187 1069.83 273.041 1072.35 273.041C1074.86 273.041 1076.16 274.187 1076.16 276.288Z" fill="#3589B6"/>
<path d="M1217.61 214.876L1191.2 214.876C1188.6 214.876 1187.21 213.73 1187.21 211.438C1187.21 209.146 1188.6 208 1191.2 208L1217.61 208C1220.21 208 1221.6 209.146 1221.6 211.438C1221.6 213.73 1220.21 214.876 1217.61 214.876Z" fill="#3589B6"/>
<path d="M1335.55 272.174H1318.82C1303.83 272.174 1296.38 267.112 1296.38 257.085V240.946C1296.38 230.823 1303.83 225.762 1318.82 225.762H1335.55C1350.55 225.762 1358 230.823 1358 240.946V257.085C1358 267.112 1350.55 272.174 1335.55 272.174ZM1348.73 257.18V240.85C1348.73 235.98 1344.39 233.593 1335.81 233.593H1318.48C1309.98 233.593 1305.65 235.98 1305.65 240.85V257.18C1305.65 261.955 1309.98 264.438 1318.48 264.438H1335.81C1344.39 264.438 1348.73 261.955 1348.73 257.18Z" fill="#3589B6"/>
<path d="M1208.94 271.219H1181.99C1169.59 271.219 1163.44 267.017 1163.44 258.517V253.074C1163.44 244.67 1169.59 240.468 1181.99 240.468H1218.82V239.036C1218.82 234.548 1215.27 232.351 1208.16 232.351H1177.83C1174.97 232.351 1173.5 231.11 1173.5 228.627C1173.5 226.144 1174.97 224.807 1177.83 224.807H1208.16C1221.34 224.807 1227.84 229.582 1227.84 239.036V257.753C1227.84 266.73 1221.6 271.219 1208.94 271.219ZM1208.42 263.77C1215.36 263.77 1218.82 261.669 1218.82 257.467V247.058H1182.68C1175.92 247.058 1172.54 249.063 1172.54 252.883V257.849C1172.54 261.764 1175.92 263.77 1182.68 263.77H1208.42Z" fill="#3589B6"/>
<path d="M1369.5 414.5L1382.37 335.464C1382.96 331.814 1380.14 328.5 1376.44 328.5H1368.57C1363.91 328.5 1361.03 323.422 1363.42 319.423L1379.25 292.923C1380.34 291.11 1382.29 290 1384.4 290H1393.02C1396.12 290 1398.71 287.628 1399.02 284.54C1404.27 231.937 1414.28 210.183 1454.55 204.067C1454.85 204.023 1455.15 204 1455.44 204H1462.42C1467.19 204 1470.14 209.375 1468.33 213.78C1461.62 230.035 1462.79 248.068 1456.39 282.781C1455.71 286.51 1458.54 290 1462.33 290H1504.67C1508.91 290 1511.83 294.279 1510.28 298.222C1503.09 316.539 1497.73 328.021 1480.5 328.5H1456.21C1453.45 328.5 1451.02 330.444 1450.38 333.134C1428.72 423.439 1432.61 454.418 1484.29 440.604C1489.11 439.316 1493.44 443.816 1490.89 448.106C1460.14 499.949 1358.71 486.27 1369.5 414.5Z" fill="#D9D9D9"/>
<path d="M1060 350L1038.96 473.858C1038.42 477.016 1040.48 480.056 1043.63 480.648C1081.88 487.839 1097.67 477.429 1116.1 442.749C1116.36 442.26 1116.56 441.725 1116.67 441.183L1135.87 350.615C1135.96 350.206 1135.99 349.783 1136.03 349.367C1138.36 324.977 1274.95 323.785 1269 357L1252.85 479.045C1252.39 482.521 1255.03 485.662 1258.53 485.726C1306.45 486.601 1319.64 468.253 1327.5 418.5L1339.5 338.5C1345.93 305.167 1327.82 296.435 1269 293H1136C1106 293 1063 334 1060 350Z" fill="#D9D9D9"/>
<path d="M539.804 310.286L455.834 371.187C454.212 372.364 453.711 374.56 454.662 376.324L497.5 455.742C517 492.742 589 498.242 634.5 455.742L757.236 307.497C759.273 305.037 757.729 301.322 754.539 301.16C701.711 298.49 664.276 328.79 594.86 420.93C592.971 423.438 589.023 422.948 587.885 420.021L545.88 312.073C544.929 309.631 541.925 308.747 539.804 310.286Z" fill="#D9D9D9"/>
<path d="M750.5 86L674 93L811.5 5L762.5 159L750.5 86Z" fill="#05FD06"/>
<path d="M509.487 239.371L429.972 279.818C427.978 280.832 425.541 280.016 424.562 278.005C405.957 239.755 370.2 166.154 362.843 150.664C355.371 134.934 336.654 140.468 327.789 145.411C327.488 145.579 327.229 145.777 326.984 146.02C276.175 196.494 170.094 301.711 149.342 321.664C133.879 336.532 136.617 353.058 142.601 364.258C144.394 367.613 141.594 372.382 137.897 371.489C59.2022 352.468 53.8096 261.909 61.6231 215.924C61.7652 215.088 62.1667 214.354 62.78 213.767C123.965 155.247 201.069 81.9434 245.342 38.6642C289.843 -4.83643 394.228 -20.3587 426.342 38.6642L511.342 234.211C512.185 236.151 511.372 238.412 509.487 239.371Z" fill="#0082C6"/>
<path d="M232.277 466.5C489.43 383.547 604.154 301.341 741.011 101.62C742.396 99.5986 739.508 97.2878 737.78 99.0268C447.576 391.214 -7.57077 474.611 70.1883 211.295C70.7842 209.277 68.2663 207.565 66.81 209.084C-90.5851 373.23 56.9419 523.061 232.277 466.5Z" fill="#05FD06"/>
<path fill-rule="evenodd" clip-rule="evenodd" d="M780.367 338.5H942.867C961.437 338.202 959.389 351.757 956.606 370.173C955.991 374.244 955.34 378.552 954.867 383C886.02 368.265 795.435 376.216 776.367 383C739.102 396.258 725.193 460.788 776.367 487C785.516 491.686 888.268 492.019 965.367 487C1028.87 482.866 1049.87 301 965.367 301H818.367C790.867 301 783.319 314.701 780.367 338.5ZM826.617 408C810.739 408 797.867 420.872 797.867 436.75C797.867 446.277 805.591 454 815.117 454H909.483C929.025 454 944.867 438.158 944.867 418.615C944.867 412.753 940.115 408 934.252 408H826.617Z" fill="#D9D9D9"/>
<path d="M1554.25 338.06C1559.9 305.994 1590.48 284.584 1622.54 290.238C1623.97 290.489 1624.92 291.848 1624.67 293.273L1600.88 428.205C1595.22 460.27 1564.65 481.681 1532.58 476.027C1531.16 475.776 1530.2 474.417 1530.45 472.992L1554.25 338.06Z" fill="#D9D9D9"/>
<path d="M1569 262C1569 229.967 1594.97 204 1627 204H1656C1656 236.033 1630.03 262 1598 262H1569Z" fill="#05FD06"/>
</svg>
